<?xml version="1.0" encoding="utf-8"?>
<!-- Generator: Adobe Illustrator 27.5.0, SVG Export Plug-In . SVG Version: 6.00 Build 0)  -->
<svg version="1.1" id="Layer_1" xmlns="http://www.w3.org/2000/svg" xmlns:xlink="http://www.w3.org/1999/xlink" x="0px" y="0px"
	 viewBox="0 0 471.8 306.1" style="enable-background:new 0 0 471.8 306.1;" xml:space="preserve">
<style type="text/css">
	.st0{display:none;fill:none;}
	.st1{fill:#005AA2;}
	.st2{fill:#88B4DC;}
	.st3{fill:#BCD5EC;}
	.st4{fill:none;}
	.st5{fill:#FFFFFF;}
</style>
<rect x="-152.6" y="-153.1" class="st0" width="776.8" height="603.2"/>
<g>
	<g>
		<g>
			<path class="st1" d="M468.1,76.5c22.9,59.3-62.3,146.3-190.5,195.7S27,313.8,3.7,255.6c-23.6-59,62.6-147.4,190.8-196.8
				S445.2,17.2,468.1,76.5z"/>
			<path class="st2" d="M433.4,30.4c29.8,49.1-31,140.4-135.7,203.8S84,309.2,54.2,260.1s31-140.4,135.7-203.8
				S403.6-18.7,433.4,30.4z"/>
		</g>
		<g>
			<path class="st3" d="M439.3,44.8c-1.2-5.1-3.2-9.9-5.9-14.3C403.6-18.7,294.6-7.1,189.9,56.3c-6.6,4-13,8.1-19.2,12.3
				c7.8-3.4,15.7-6.7,23.8-9.8C294.4,20.2,390.7,16.5,439.3,44.8z"/>
		</g>
	</g>
	<g>
		<g>
			<path class="st4" d="M428.5,106c-0.1,0.1-0.1,0.3-0.2,0.4C428.3,106.3,428.4,106.2,428.5,106z"/>
			<g>
				<polygon class="st5" points="344.5,27 344.5,27 344.5,13.3 320.6,27.6 320.6,28.5 320.6,28.5 320.6,69.6 344.5,55.3 				"/>
				<path class="st5" d="M257.7,38V22.2c-8.6,3.4-16.6,6.9-24,10.4v12v23.7l24-14.3V38"/>
				<path class="st5" d="M362.7,231.5c0.2-0.1,0.4-0.3,0.6-0.4c-0.3,0.2-0.6,0.4-0.9,0.6C362.6,231.6,362.6,231.6,362.7,231.5z"/>
				<path class="st5" d="M265.5,253.2c4.8-48.3,4.3-123.1-7.8-171.1l-24,14.3c-8.5,38-9.4,116.6-2.9,172.4
					c0.8,6.9,1.7,13.5,2.7,19.6c9.6-2.7,19.1-5.8,28.3-9.1C263.2,272.4,264.4,263.6,265.5,253.2"/>
				<path class="st5" d="M353.7,237c0.9-13.3,1.4-27.9,1.5-42.9l0,0c0.2-39-2.8-81-10.6-112l-24,14.3c-6.4,28.7-8.5,80.6-6.3,128.3
					l0.1-0.1l-0.1,0.1c0.5,11,1.2,21.9,2.2,32.1c-0.5,0.2-1,0.5-1.5,0.7c2.8-1.3,9.3-4.4,21.1-10.7c9.5-5.1,15.2-8.4,19.3-10.9
					C354.7,236.4,354.2,236.7,353.7,237z"/>
			</g>
		</g>
	</g>
	<g>
		<path class="st5" d="M168.3,170.6c-46-47.8-22.5-75.8,16.9-98.3l-7.7-6.6l-0.1,0l-0.6-0.5c0,0,0,0,0,0L169,58
			c0,0-16.2,8-33.4,20.6c-10.5,7.7-17.3,15.4-19.7,18.2c-0.1,0.2-0.3,0.3-0.4,0.4c-0.1,0.1-0.2,0.1-0.3,0.2
			c-7.7,9.6-13.1,20-14.7,31.2c0,0,0,0,0,0c-2.4,16.7,3.7,35.3,23.5,56.6c32.4,35,37.3,70-1.8,105.9c-5.1,4.7-11.2,9.6-17.8,14.4
			c10.4,0.8,21.1,0.8,32.4-0.2c0.1,0,0.1-0.1,0.2-0.1c7.4-5.2,14.1-10.7,20.2-16.2C196.7,252.6,206.3,210.1,168.3,170.6z"/>
	</g>
</g>
</svg>
