<?xml version="1.0" encoding="utf-8"?>
<!-- Generator: Adobe Illustrator 19.2.0, SVG Export Plug-In . SVG Version: 6.00 Build 0)  -->
<svg version="1.1" xmlns="http://www.w3.org/2000/svg" xmlns:xlink="http://www.w3.org/1999/xlink" x="0px" y="0px" width="800px"
	 height="142px" viewBox="0 0 800 142" enable-background="new 0 0 800 142" xml:space="preserve">
<g id="Background">
</g>
<g id="Vertical">
</g>
<g id="Horizontal">
</g>
<g id="Dynatrace_Color">
</g>
<g id="Variants">
	<g>
		<g>
			<g>
				<path fill="#FFFFFF" d="M578.6,37.2h-18.4c-5.2,0-8.8,1-11,3.2c-2.2,2.1-3.3,5.8-3.3,10.8l0,63.6h-11l0-64.4
					c0.1-4.9,0.9-10.2,3.5-14.2c4.7-7.5,13.7-8.9,20.4-8.9h19.9V37.2z"/>
			</g>
			<g>
				<path fill="#FFFFFF" d="M507.6,104.8c-5.2,0-8.8-1-11-3.2c-2.2-2.1-3.3-5.6-3.3-10.6V37.2h23.1v-9.9h-23.1V1h-11v90.6
					c0.1,4.9,0.9,10.2,3.5,14.2c4.7,7.5,13.7,8.9,20.4,8.9h19.9v-9.9H507.6z"/>
			</g>
			<path fill="#FFFFFF" d="M219.3,1v26.2l-23.1,0c-14,0-22.5,4.2-27.8,9.3c-8.1,7.9-8.1,19.2-8.1,20.4c0,1.4,0,26.8,0,28.2
				c0,1.2,0,12.5,8.1,20.4c5.2,5.1,13.7,9.3,27.8,9.3h10.3c6.7,0,15.7-1.5,20.4-8.9c2.5-4,3.4-9.3,3.5-14.2V1H219.3z M216,101.7
				c-2.2,2.1-5.8,3.2-11,3.2H195c-9.1,0-14.8-2.6-18.2-6c-4.1-4-5.5-9.3-5.5-13.4V56.6c0-4.1,1.4-9.4,5.5-13.4c3.5-3.4,9.1-6,18.2-6
				l24.2,0l0,53.9C219.3,96,218.2,99.5,216,101.7z"/>
			<path fill="#FFFFFF" d="M678.2,43.2c3.5-3.4,9.1-6,18.2-6h26.5v-9.9h-25.4c-14,0-22.5,4.2-27.8,9.3c-8.1,7.9-8.1,19.2-8.1,20.4
				c0,0.8,0,27.4,0,28.2c0,1.2,0,12.5,8.1,20.4c5.2,5.1,13.7,9.3,27.8,9.3h25.4v-9.9h-26.5c-9.1,0-14.8-2.6-18.2-6
				c-4.1-4-5.5-9.3-5.5-13.4V56.6C672.7,52.4,674.1,47.1,678.2,43.2z"/>
			<path fill="#FFFFFF" d="M470.9,56.9c0-1.2,0-12.5-8.1-20.4c-5.2-5.1-13.7-9.3-27.8-9.3h-24.5v9.9h25.6c9.1,0,14.8,2.6,18.2,6
				c4.1,4,5.5,9.3,5.5,13.4V65h-35.1c-6.7,0-15.7,1.5-20.4,8.9c-2.5,4-3.4,9.3-3.5,14.2v3.5c0.1,4.9,0.9,10.2,3.5,14.2
				c4.7,7.5,13.7,8.9,20.4,8.9h22.3c6.7,0,15.7-1.5,20.4-8.9c2.5-4,3.4-9.3,3.5-14.2C470.9,91.6,470.9,62.6,470.9,56.9z
				 M456.6,101.7c-2.2,2.1-5.8,3.2-11,3.2h-19.4c-5.2,0-8.8-1-11-3.2C413,99.5,412,96,412,91.1v-2.4c0-5,1.1-8.5,3.3-10.6
				c2.2-2.1,5.8-3.2,11-3.2h33.6l0,16.2C459.9,96,458.8,99.5,456.6,101.7z"/>
			<path fill="#FFFFFF" d="M652.9,56.9c0-1.2,0-12.5-8.1-20.4c-5.2-5.1-13.7-9.3-27.8-9.3h-24.5v9.9h25.6c9.1,0,14.8,2.6,18.2,6
				c4.1,4,5.5,9.3,5.5,13.4V65h-35.1c-6.7,0-15.7,1.5-20.4,8.9c-2.5,4-3.4,9.3-3.5,14.2v3.5c0.1,4.9,0.9,10.2,3.5,14.2
				c4.7,7.5,13.7,8.9,20.4,8.9h22.3c6.7,0,15.7-1.5,20.4-8.9c2.5-4,3.4-9.3,3.5-14.2C652.9,91.6,652.9,62.6,652.9,56.9z
				 M638.6,101.7c-2.2,2.1-5.8,3.2-11,3.2h-19.4c-5.2,0-8.8-1-11-3.2C595,99.5,594,96,594,91.1v-2.4c0-5,1.1-8.5,3.3-10.6
				c2.2-2.1,5.8-3.2,11-3.2h33.6l0,16.2C641.9,96,640.8,99.5,638.6,101.7z"/>
			<polygon fill="#FFFFFF" points="317.8,27.2 306.3,27.2 278.4,99.8 250.5,27.2 239.1,27.2 272.7,114.7 262.6,141 274.1,141 			"/>
			<path fill="#FFFFFF" d="M392.2,56.9c0-1.2,0-12.5-8-20.4c-5.1-5-13.2-9.1-26.4-9.3h-1.2c-13.2,0.2-21.3,4.3-26.4,9.3
				c-8,7.9-8,19.2-8,20.4c0,1.4,0,53.4,0,57.9h11l0-58.2c0-4.1,1.3-9.4,5.4-13.4c3.4-3.3,9.9-5.9,18.6-6c8.7,0.1,15.2,2.7,18.6,6
				c4,4,5.4,9.3,5.4,13.4l0,58.2h11C392.2,110.3,392.2,58.3,392.2,56.9z"/>
			<path fill="#FFFFFF" d="M791,36.5c-5.1-5-13.2-9.1-26.4-9.3h-1.2c-13.2,0.2-21.3,4.3-26.4,9.3c-8,7.9-8,19.2-8,20.4v28.2
				c0,1.2,0,12.5,8,20.4c5.1,5,13.2,9.1,26.4,9.3h26v-10l-25.4,0c-8.7-0.1-15.2-2.7-18.6-6c-4-4-5.4-9.3-5.4-13.4V75.1h59V56.9
				C799,55.7,799.1,44.4,791,36.5z M740.1,65.2v-8.6c0-4.1,1.3-9.4,5.4-13.4c3.4-3.3,9.9-5.9,18.6-6c8.7,0.1,15.2,2.7,18.6,6
				c4,4,5.4,9.3,5.4,13.4l0,8.6H740.1z"/>
		</g>
		<g>
			<path fill="#FFFFFF" d="M42.5,50.6c0,0-39.3-4.7-41.5,4.8c0.1,7.1,0.3,18.3,1.2,30.8c1.4,21.3,4.1,40.2,4.1,40.2l35.5-33.8
				C41.7,92.7,40.4,75.8,42.5,50.6z"/>
			<path fill="#FFFFFF" d="M89.2,99.6c-25.3,0.8-42.1-1.3-42.1-1.3l-35.5,33.8c0,0,18.8,3.7,40,6.1c12,1.4,28.2,2.5,30.5,2.7
				c0.2,0,0.5,0,0.6-0.1C91.9,138.2,89.2,99.6,89.2,99.6z"/>
			<path fill="#FFFFFF" d="M13,45.7c9.6-1.3,23.8-2.8,38.1-3.2c25.3-0.8,42,1.3,42,1.3L128.6,10c0,0-18.6-3.5-39.8-6
				C74.9,2.3,62.7,1.4,55.9,1c-0.5,0-5.4-0.6-10,3.8C40.8,9.6,15.4,33.7,5.2,43.4C0.6,47.8,1,52.7,1,53.1c0,0.7,0,1.4,0,2.2
				c0.4-1.7,1.1-2.9,2.5-4.8C6.4,46.9,11.1,45.9,13,45.7z"/>
			<path fill="#FFFFFF" d="M138,55.7c-1.4-21.3-4.1-40.1-4.1-40.1L98.5,49.4c0,0,1.3,16.8-0.8,42c-1.1,14.3-3.4,28.4-5.1,37.9
				c-0.3,1.9-1.5,6.5-5.4,9.3c-1.9,1.3-3.1,1.9-4.9,2.3c0.8,0,1.5,0.1,2.2,0.1c0.5,0,5.4,0.6,10-3.8c10.2-9.7,35.5-33.9,40.5-38.7
				c4.6-4.4,4.2-9.3,4.2-9.8C139.2,81.9,139,69.6,138,55.7z"/>
		</g>
	</g>
</g>
</svg>
