<?xml version="1.0" encoding="utf-8"?>
<!-- Generator: Adobe Illustrator 23.1.0, SVG Export Plug-In . SVG Version: 6.00 Build 0)  -->
<svg version="1.1" id="Layer_1" xmlns="http://www.w3.org/2000/svg" xmlns:xlink="http://www.w3.org/1999/xlink" x="0px" y="0px"
	 viewBox="0 0 200 57" style="enable-background:new 0 0 200 57;" xml:space="preserve">
<style type="text/css">
	.st0{fill:#0075C9;}
</style>
<g>
	<g>
		<path class="st0" d="M7.3,41.6h2.8l0.5,5.3l2-5.3h2.8l1,5.3l1.5-5.3h2.8l-3,9.4h-2.9l-1.1-5.9l-2.3,5.9H8.5L7.3,41.6z"/>
		<path class="st0" d="M22.6,41.6h8l-0.2,2h-5l-0.1,1.5h4.6l-0.2,1.9H25l-0.2,1.9H30l-0.2,2.1h-8.1L22.6,41.6z"/>
		<path class="st0" d="M45.7,41.6h5.6c0.9,0,1.6,0.2,2.1,0.7c0.5,0.5,0.6,1,0.6,1.7c-0.1,0.6-0.3,1-0.7,1.4
			c-0.3,0.3-0.6,0.5-1.1,0.6c0.7,0.2,1.2,0.4,1.4,0.8c0.3,0.4,0.4,0.9,0.3,1.5c0,0.5-0.2,0.9-0.5,1.3c-0.3,0.4-0.6,0.7-1,0.9
			c-0.3,0.1-0.6,0.2-1.2,0.3c-0.7,0.1-1.1,0.1-1.3,0.1h-5.1L45.7,41.6z M48.3,45.3h1.3c0.5,0,0.8-0.1,1-0.2c0.2-0.2,0.3-0.4,0.3-0.7
			c0-0.3,0-0.5-0.2-0.6c-0.2-0.2-0.5-0.2-0.9-0.2h-1.3L48.3,45.3z M48,49h1.5c0.5,0,0.9-0.1,1.1-0.3c0.2-0.2,0.4-0.4,0.4-0.7
			c0-0.3-0.1-0.5-0.2-0.7c-0.2-0.2-0.5-0.3-1.1-0.3h-1.5L48,49z"/>
		<path class="st0" d="M63,41.6h3l-0.5,5.6c-0.1,0.6-0.2,1.1-0.4,1.6c-0.2,0.5-0.5,0.9-1,1.3c-0.4,0.4-0.8,0.6-1.3,0.8
			c-0.6,0.2-1.3,0.3-2.1,0.3c-0.5,0-1,0-1.5-0.1c-0.5-0.1-1-0.2-1.3-0.4c-0.4-0.2-0.7-0.5-0.9-0.8c-0.3-0.4-0.5-0.7-0.5-1.1
			c-0.1-0.6-0.2-1.1-0.1-1.6l0.5-5.6h3l-0.6,5.8c0,0.5,0.1,0.9,0.3,1.2c0.3,0.3,0.7,0.4,1.2,0.4c0.5,0,0.9-0.1,1.2-0.4
			c0.3-0.3,0.5-0.7,0.6-1.2L63,41.6z"/>
		<path class="st0" d="M68.9,41.6h3l-0.9,9.4h-3L68.9,41.6z"/>
		<path class="st0" d="M74.9,41.6h3l-0.7,7.1h4.6l-0.2,2.3H74L74.9,41.6z"/>
		<path class="st0" d="M84.8,41.6h4.4c0.9,0,1.6,0.1,2.1,0.3c0.5,0.2,0.9,0.6,1.2,1c0.3,0.4,0.5,0.9,0.6,1.5
			c0.1,0.6,0.1,1.2,0.1,1.8c-0.1,1-0.3,1.8-0.6,2.3c-0.3,0.6-0.7,1-1.1,1.4c-0.5,0.4-0.9,0.6-1.4,0.7c-0.7,0.2-1.3,0.3-1.8,0.3h-4.4
			L84.8,41.6z M87.5,43.8L87,48.9h0.7c0.6,0,1.1-0.1,1.3-0.2c0.3-0.1,0.5-0.4,0.7-0.7c0.2-0.3,0.3-0.9,0.4-1.6c0.1-1,0-1.7-0.3-2.1
			c-0.3-0.4-0.8-0.6-1.6-0.6H87.5z"/>
		<path class="st0" d="M107.4,47.9l2.8-0.2c0,0.5,0.1,0.8,0.3,1c0.3,0.4,0.7,0.6,1.3,0.6c0.4,0,0.8-0.1,1-0.3
			c0.2-0.2,0.4-0.4,0.4-0.7c0-0.2-0.1-0.5-0.3-0.7c-0.2-0.2-0.7-0.4-1.5-0.5c-1.3-0.3-2.2-0.7-2.7-1.1c-0.5-0.5-0.7-1.1-0.7-1.8
			c0-0.5,0.2-0.9,0.6-1.4c0.3-0.4,0.8-0.8,1.4-1c0.6-0.2,1.4-0.4,2.4-0.4c1.2,0,2.1,0.2,2.7,0.7c0.6,0.4,0.9,1.2,0.9,2.1l-2.8,0.2
			c0-0.4-0.2-0.7-0.4-0.9c-0.2-0.2-0.5-0.3-1-0.3c-0.3,0-0.6,0.1-0.8,0.2c-0.2,0.1-0.3,0.3-0.3,0.5c0,0.2,0,0.3,0.2,0.4
			c0.1,0.1,0.4,0.2,1,0.3c1.3,0.3,2.2,0.6,2.7,0.8c0.5,0.3,0.9,0.6,1.1,1c0.2,0.4,0.3,0.9,0.2,1.4c-0.1,0.6-0.3,1.2-0.7,1.7
			c-0.4,0.5-0.9,0.9-1.5,1.2c-0.6,0.3-1.4,0.4-2.4,0.4c-1.6,0-2.7-0.3-3.3-0.9C107.7,49.7,107.4,48.9,107.4,47.9z"/>
		<path class="st0" d="M119.1,41.6h8l-0.2,2h-5l-0.1,1.5h4.6l-0.2,1.9h-4.6l-0.2,1.9h5.1l-0.2,2.1h-8.1L119.1,41.6z"/>
		<path class="st0" d="M135.6,47.2l2.5,0.8c-0.2,0.7-0.6,1.3-1,1.8c-0.4,0.5-0.9,0.8-1.5,1.1c-0.6,0.2-1.3,0.4-2.2,0.4
			c-1,0-1.9-0.1-2.5-0.4c-0.6-0.3-1.2-0.8-1.6-1.6c-0.4-0.8-0.6-1.7-0.4-2.9c0.2-1.6,0.7-2.8,1.6-3.6c0.9-0.8,2.2-1.3,3.7-1.3
			c1.2,0,2.1,0.2,2.8,0.7c0.6,0.5,1.1,1.2,1.3,2.2l-2.7,0.6c-0.1-0.3-0.1-0.5-0.2-0.6c-0.1-0.2-0.3-0.4-0.6-0.5
			c-0.2-0.1-0.5-0.2-0.8-0.2c-0.7,0-1.2,0.3-1.6,0.8c-0.3,0.4-0.5,1-0.6,1.9c-0.1,1,0,1.8,0.3,2.1c0.3,0.4,0.7,0.6,1.3,0.6
			c0.6,0,1-0.2,1.3-0.5C135.2,48.2,135.4,47.8,135.6,47.2z"/>
		<path class="st0" d="M147.3,41.6h3l-0.5,5.6c-0.1,0.6-0.2,1.1-0.4,1.6c-0.2,0.5-0.5,0.9-1,1.3c-0.4,0.4-0.8,0.6-1.3,0.8
			c-0.6,0.2-1.3,0.3-2.1,0.3c-0.5,0-1,0-1.5-0.1c-0.5-0.1-1-0.2-1.4-0.4c-0.4-0.2-0.7-0.5-0.9-0.8c-0.3-0.4-0.5-0.7-0.5-1.1
			c-0.1-0.6-0.2-1.1-0.1-1.6l0.5-5.6h3l-0.6,5.8c0,0.5,0.1,0.9,0.3,1.2c0.3,0.3,0.7,0.4,1.2,0.4c0.5,0,0.9-0.1,1.2-0.4
			c0.3-0.3,0.5-0.7,0.6-1.2L147.3,41.6z"/>
		<path class="st0" d="M152.3,51.1l0.9-9.4h5c0.9,0,1.6,0.1,2.1,0.2c0.5,0.2,0.8,0.4,1.1,0.9c0.3,0.4,0.4,0.9,0.3,1.5
			c-0.1,0.5-0.2,1-0.5,1.4c-0.3,0.4-0.6,0.7-1,0.9c-0.3,0.2-0.6,0.3-1.1,0.4c0.3,0.1,0.6,0.2,0.7,0.3c0.1,0.1,0.2,0.2,0.4,0.5
			c0.2,0.3,0.3,0.4,0.4,0.6l1.2,2.7h-3.4l-1.3-2.9c-0.2-0.4-0.3-0.6-0.5-0.7c-0.2-0.1-0.4-0.2-0.7-0.2h-0.3l-0.4,3.8H152.3z
			 M155.8,45.4h1.3c0.1,0,0.4,0,0.8-0.1c0.2,0,0.4-0.1,0.5-0.3c0.1-0.2,0.2-0.3,0.2-0.5c0-0.3,0-0.5-0.2-0.7
			c-0.2-0.2-0.5-0.2-1.1-0.2H156L155.8,45.4z"/>
		<path class="st0" d="M164.6,41.6h3l-0.9,9.4h-3L164.6,41.6z"/>
		<path class="st0" d="M169.9,41.6h9l-0.2,2.3h-3l-0.7,7.1h-3l0.7-7.1h-3L169.9,41.6z"/>
		<path class="st0" d="M180.2,41.6h3.3l1.6,3.2l2.2-3.2h3.3l-4.3,5.5l-0.4,4h-3l0.4-4L180.2,41.6z"/>
	</g>
	<g>
		<polygon class="st0" points="10.8,5.8 7.7,38.9 17.6,38.9 18.9,25.4 31.3,25.4 31.9,18.7 19.5,18.7 20.1,12.9 34.6,12.9 35.3,5.8 
					"/>
		<polygon class="st0" points="45.2,24.9 60.5,24.9 61.1,18.1 45.8,18.1 46.3,12.9 62.8,12.9 63.5,5.8 37.1,5.8 33.9,38.9 
			60.9,38.9 61.6,31.4 44.6,31.4 		"/>
		<polygon class="st0" points="63.7,38.9 73.6,38.9 76.7,5.8 66.8,5.8 		"/>
		<polygon class="st0" points="109,38.9 118.9,38.9 122.1,5.8 112.2,5.8 		"/>
		<polygon class="st0" points="183.6,5.8 181.8,24.6 171.5,5.8 162.3,5.8 159.2,38.9 168.4,38.9 170.1,20.1 180.4,38.9 189.6,38.9 
			192.7,5.8 		"/>
		<path class="st0" d="M137.4,5.8l-15.1,33.1h9.9l2.2-5.5h11.6l1.1,5.5h9.9l-8.8-33.1H137.4z M137.2,26.3l4.8-12.2l2.5,12.2H137.2z"
			/>
		<polygon class="st0" points="79,5.8 78.2,13.9 88.2,13.9 85.8,38.9 95.7,38.9 98.1,13.9 108.1,13.9 108.9,5.8 		"/>
	</g>
</g>
</svg>
